/* XPM */
static char *.xpm[] = {
/* columns rows colors chars-per-pixel */
"50 50 9 1",
"  c #259725",
". c #2AA12A",
"X c #2BA22B",
"o c #2CA52C",
"O c #2FAA2F",
"+ c #31AC31",
"@ c #32AF32",
"# c #33B033",
"$ c #34B234",
/* pixels */
"#$####$#$$+$$@$$$$+$$$@@$@$$@@$$@@$$$$$$+$$@$$$$+$",
"##+.###OX@$@+X+$++X@$++.+$++X$$++X+$++X@$@+X+$++X@",
".####.##$@.$+$$.$$$+.$$@$X@@@@.$@@$.++$@.@+$@.$@$$",
"o####o##+$o$$+@o@+$$o$+$$X$@$$o@$+$o$$@$o$@@$o@@+$",
"#+ ###+ $+$+ ++$+ +$++ +$++ ++@+ @$++ +$++ @@@+ +$",
"#$####$#$++$$$$+$$$$$$$@$$$@$$$$$+@$$$$$$$$@@$$@$@",
"##O.###OX$$++.#$++.+$@+X+$++X+$++.$$@+X+$@+X@$++X@",
".####.##@$.$+$$.$@@$.@+$@.$@$$.$$$$ $+$+.@+$$.$@+$",
"o$##$o###$o#+$$o$@+$X$@$$o$@@$X$@@$o$@$$o$@$$o$+$@",
"++ #$++ +$++ $#++ $@@+ @$++ $@++ $@@+ @@++ @$++ @$",
"$$####$##$$$$+#$$@$$$$+@$$$+@$$$$+$@$@@$$$@@$+$$@$",
"#++.###OX+$#+X+$++X+$@+X+$@+X@$@+X+$@+X@$@+X@$++X@",
".####.####.#+$+.$+$@.@$$$ @$@$ $@$+.$+$+ @@$@.$$$+",
"o$###o#$+$o#+$$o@$@$o$@@$o$@$@o$@$$o$$@$+$$+$o@@$$",
"++ ##++ $+#+ +$$+ @$++ $$$+ @@$+ @$++ @$++ @@@+ ++",
"$$####$$#$$$$$$+$$+$$$@@@$$@$$$$@$@$$@@@$$$$@$$+$$",
"@$+X+$++X+@$+X+$@+.+$$+X$@@+.@$@+.@$$+X@$@+.@$@+X+",
".@+$$.@$$$.@+$$.$@@$ $$@$.$@+$ $@$$ $$$+.@$@@.@$$$",
"o$$@$o@@@$o$@@@o$@$@o$+$@o$@+$+$$+$o@@$$o$+$$o$@@$",
"++ +$++ @@@+ @$@+ $@@+ @@@+ $$++ @@@+ +$++ @$++ @@",
"$$$@$$$$$$$$+$$@$@$@$$@@$@$$@$@$+$@@$@@$$$+$@@$$$$",
"$++X+$++X+$++X+$++X@$++X+$++X@@$+X@$@+X@$@+X+$++X+",
".@+$+X$$@@.$$@@X$$@@.@@$$.$+$+.$+$@X$+$@.+$$$.@@$@",
"o$@@$o@+$$o@@@$o@@@$o$$+$o@$@$o@$@$X$$+$o$@@$o$@+$",
"@+ @$++ @@@+ +@@+ @@++ @@++ @@@+ +$++ +$++ @$++ $@",
"$$@$@$$$@$$$$$@$$@$$$$$@$$$@$@$$$@$@$$$@$$$@$$$@@$",
"@++X+$@+o$$@+X@@@+X@$@+.@$$+X+@$+X+$$+.$$@+X+$++X+",
".$@@$.$+$$ $+@$.$+@$.@@@$ $$$$X++$$.@@@@.@+$@.$$@$",
"o$@@$o$@@$o$+$$o$+$$o$@$$o$+@$X$@@$o$@@$o$@@@o$++$",
"++ $+@+ @@++ @@@+ $+++ @@@+ @$++ $@@+ $+@+ $$++ $$",
"$$@@$@$$$$@$$$$@$$@$$$$$$@$$$$$$$+$@$@$$$$@@@$$$$@",
"$@+X+$++X+$++X@$++X+@++X+$++X+$@+X+$++X+$++X$$++X+",
".$@@$.@@@$ $$$@.@$+@.@@@$.$+$@.@@$$ $+$@.$@$@.$++$",
"o@$@$o$@+$o$$$$o@$$$o$$@$X$$+$o$$+$+$+@$o@@$$X$$$$",
"++ @@++ $@++ @@++ @@++ @$@+ @$++ @@++ +$++ @$@+ $+",
"$$$@$@$@@$$$$@$$$@$$$$$@$@$@@$$$$@$$$$$$$$$@$+$$@$",
"$@+X+$@+o$$@+X@$@+X@@$+X+$++X+$@+.@$@+X+$@+X+$++X@",
"X@@@$.$@$$ $+@@.@$+$.@+@@.$@@$.@$+@X$+$@.@+$$.$+@@",
"o$@@@o$@@$o$+$$o$++$o$@$$o$$$$o$@$@o@$+$o$$@$o$+$$",
"++ $@@+ @@@+ @$++ $$++ @@++ +$++ @$++ $@++ +$@+ +$",
"@$$@$@$@$@$$@@$@$$$$$$+$$+$+@$@$$$$@$@@$$$@@$@$$+$",
"$++X+$@+X@$++.+$++X+$@+X@$$+X+$$+X+$@+X@$@+X+$++X$",
" $@$$.@@$$.$@$$.$+@$ @@$$.@@$@.@+@@.@$$@ @@$@X$+$@",
"o$$+$o$@+$o@$+$o@$@$+$$+$o$$+$o$$@$X$@+$+$$+$X$$+$",
"$+ @@@+ @@$+ $@++ $+++ @+++ $@++ $@++ @@++ @@++ $@",
"$$$$$@$$$$$$@@$$$+@$$$$@$$$$+$$$$+$$$+$$$$$@$@$$@@",
"$@+ +$++X+$$+X+$@+X+$@+.@@@+X$@$+o@$@+X+$@+X@$$+X$",
".$$$$.@$@$ $+@$.$@$$.@@@$.$++$.@@$$ $@$$.@+$@.@+@$",
"o$@@$o$$$@o$@@$X$@+$o$@@$X$@@$o$@$$o@$+$o$@@$X@$+$",
"++ $@++ @@@+ @$@+ $@@+ $$++ @@@+ +@$+ +$@+ $$@+ +$"
};
