/* XPM */
static char *collectible[] = {
/* columns rows colors chars-per-pixel */
"50 50 218 2 ",
"   c #010101",
".  c #080505",
"X  c #0A0A05",
"o  c #0B0F0B",
"O  c #0E1B0B",
"+  c #0B1109",
"@  c #14130A",
"#  c #121B0C",
"$  c #191609",
"%  c #151B14",
"&  c #1A0F04",
"*  c #361D06",
"=  c #291904",
"-  c #182612",
";  c #3A2307",
":  c #23341D",
">  c #233B1B",
",  c #2C3B1D",
"<  c #293825",
"1  c #4C2C06",
"2  c #4E3008",
"3  c #5D3905",
"4  c #5A380B",
"5  c #473B19",
"6  c #6D3D03",
"7  c #553D32",
"8  c #4F3B35",
"9  c #25441B",
"0  c #32411D",
"q  c #2B4324",
"w  c #2B4723",
"e  c #354926",
"r  c #325C26",
"t  c #335224",
"y  c #31532C",
"u  c #37662A",
"i  c #3E782D",
"p  c #4B4617",
"a  c #514717",
"s  c #6D4207",
"d  c #70540F",
"f  c #6D661A",
"g  c #515A26",
"h  c #785724",
"j  c #53602F",
"k  c #467C38",
"l  c #426832",
"z  c #696E32",
"x  c #6A4A46",
"c  c #794C41",
"v  c #714841",
"b  c #725347",
"n  c #735349",
"m  c #7D5747",
"M  c #6C504B",
"N  c #517F42",
"B  c #975B09",
"V  c #975B0A",
"C  c #845209",
"Z  c #A25F02",
"A  c #9F600C",
"S  c #A16209",
"D  c #A56206",
"F  c #B56E07",
"G  c #BE7511",
"H  c #946234",
"J  c #9A6733",
"K  c #9F6D26",
"L  c #A86D29",
"P  c #AA6F2D",
"I  c #805B46",
"U  c #9A7C43",
"Y  c #4D813D",
"T  c #4D8A3C",
"R  c #448733",
"E  c #528B3D",
"W  c #4B9236",
"Q  c #4F9739",
"!  c #51923D",
"~  c #5C9A3D",
"^  c #55963D",
"/  c #6D823B",
"(  c #54A43E",
")  c #578C42",
"_  c #5C9C43",
"`  c #599647",
"'  c #5B9051",
"]  c #669F44",
"[  c #7D8D54",
"{  c #7D9257",
"}  c #7C944E",
"|  c #5BA644",
" . c #69B94A",
".. c #77B84A",
"X. c #68B452",
"o. c #70AC52",
"O. c #5FD446",
"+. c #6BCA4F",
"@. c #67C74A",
"#. c #77C84D",
"$. c #64D646",
"%. c #69D746",
"&. c #66D846",
"*. c #6ADB47",
"=. c #66D748",
"-. c #67D848",
";. c #6ADA49",
":. c #6AD24C",
">. c #72DD47",
",. c #72D54D",
"<. c #72DE49",
"1. c #7BDC4B",
"2. c #6CC552",
"3. c #72DC52",
"4. c #7ADD53",
"5. c #75D856",
"6. c #6CE047",
"7. c #6DE34C",
"8. c #6FE94F",
"9. c #75E147",
"0. c #7AE147",
"q. c #74E34A",
"w. c #7AE44A",
"e. c #74EA4D",
"r. c #7BEA4C",
"t. c #75E947",
"y. c #7DF34F",
"u. c #73E452",
"i. c #7AE454",
"p. c #7CEB53",
"a. c #78ED59",
"s. c #7EF350",
"d. c #78F555",
"f. c #B4891A",
"g. c #9A8E2C",
"h. c #968C27",
"j. c #938D30",
"k. c #A0823F",
"l. c #A79D2E",
"z. c #B8AD2C",
"x. c #DE8507",
"c. c #D98713",
"v. c #E78C07",
"b. c #FD9500",
"n. c #FE9A01",
"m. c #F79602",
"M. c #FB8D00",
"N. c #FEA101",
"B. c #FFAA03",
"V. c #FAA50A",
"C. c #FCAA0A",
"Z. c #F5AE12",
"A. c #FAB211",
"S. c #FABA15",
"D. c #F8BC19",
"F. c #FFB60F",
"G. c #C28623",
"H. c #C4B833",
"J. c #FAC41D",
"K. c #FDEB1E",
"L. c #D4C03E",
"P. c #FAD82A",
"I. c #F9D529",
"U. c #ECDD39",
"Y. c #E3D03B",
"T. c #FBDF31",
"R. c #FDEC2D",
"E. c #F9E728",
"W. c #EFE93D",
"Q. c #FBE333",
"!. c #FCEB35",
"~. c #FEED3B",
"^. c #F7E739",
"/. c #FEF23D",
"(. c #FFFC3E",
"). c #FFFC32",
"_. c #FEFC2F",
"`. c #9F8240",
"'. c #858E61",
"]. c #C1BA63",
"[. c #86DB4E",
"{. c #89DE4D",
"}. c #92D94C",
"|. c #84E64B",
" X c #89E74B",
".X c #83EA4B",
"XX c #8CEA4B",
"oX c #92EC4C",
"OX c #91E34F",
"+X c #9AF14E",
"@X c #97F14D",
"#X c #83EC54",
"$X c #85E754",
"%X c #95EA55",
"&X c #8CFD54",
"*X c #93F253",
"=X c #9BF955",
"-X c #A0F44F",
";X c #80F160",
":X c #DFD041",
">X c #FDEE47",
",X c #FFFC42",
"<X c #FFF641",
"1X c #FCEF54",
"2X c #FDF05C",
"3X c #FAF16C",
"4X c #FBF177",
"5X c #FDF593",
"6X c #FDFA98",
"7X c #FAF388",
"8X c #FAF6AB",
"9X c #FDF6A3",
"0X c #FBF7B1",
"qX c #FEFDB1",
"wX c #FCFAC8",
"eX c #FCFBDE",
"rX c #FEFFFE",
"tX c #FBFBE7",
/* pixels */
";.;.>.q.9.*.&.*.-X*.q.6.w.;.-.-.;.6.;.;.;.-.-.9.-.=.t.Q     + +.6.&.&.&.q.6.&.*.9..X0.0.*.&.*.oXw.@X",
";.;.-.-.*.*.*.*.*.*.9.t.w.6.q.-.;.q.&.q.<.%.-.-.*.&.y.~     o +.6.XX9.O.6.9.;.;.-.-.*.*.&.>.0.oXoX|.",
";.-.-.&.0.-X&.&.-.*.w.q.q.r.9.-.-.9.9.r.;.-.=..X{.@.4.^     o +.*.XX*. X9.-.;.;.9.;.;.&.*.-. XXXXXXX",
"=.=. X*.*.*.*.q.*.;.q.q.q.q.-.;.-.9.w.;.-.;.$.*Xt   o X     o +.*.=.&.XXw.-.=.&.r.*.&.&.*.&..XoXoXXX",
"0.<.|.=.;.&.*.r.-.-.*.9.9.*.-.-.$.&.*.-.-.>.w.%X,           + +.6.&.-.=.=.;.6.6.&.q.&.9.&.*.-.0.|.>.",
"+XoX>.&.;.-.&.-.=.;.-.-.;.-.*.-.XX6.-.*.-.=. X-X,   .       o +.&.XXXX;.;.;.;..X6.9.q.q.$.;.&.&.$.*.",
"|. X>.&.&..Xw.-.9.;.;.;.;.-.=.;.@X*.;.*.>.<.*.i.:     q ` ) ] :.>.oX-.-.-.;.-.*.r.q.r.;.*.&.-.r.>.&.",
"-.-.*.-.-.*..X|..X=.=.;.;.=.w.|. X|.*.-.*.>.$.3.:     i &X7..X0.|.<.w.XX&.-.q.;.9.q.q.9.6.;.*.;.w.q.",
"-.&.*.-.0..Xw..X*.*.-.w.6.&.0.%XoXoX6.e.8.7.e.i.<     i e.$.6.@X XXX+X<.-.-.q.3.q.r.w.q.-.&.q.q.9.w.",
"*.9.-.*.-.w..X.X*.-.*.q.*.*.;.0.0.+.X.X.X.X...2.:     r +. . . XoXoX0.;.<.%.;.;.i.;.*.-.*.&.*.w.q.t.",
"&.r.*.-.;.;.<.q.;.6.9.q.q.*.&.$.e.r   . .     .         .   # [.*XoX0.XX>.;.;.&.5.5.<.;.-.0.*.&.9.6.",
"9.q.9.*.=.;.;.=.;.*.q.9.9.&.-.$.u.t   .                     + [.XXoX9.1.%.%.:.;.:.i.r.-.-.*.*.0.&.-.",
"q.q.q.6.-.;.-.;.=.&.7.i.i.u.i.i.a.y               . . .     + 5.p.e.i.7.e.#X9.&.;.6.q.6.-.;.-.*.&.*.",
"6.9.9.;.$.%XXX=.w.q.) < q q e e < j.z.z.g.8 7 7 7 8 8 C F F F e 9 q q q 9 u ;.=.q.q.w.9.;.=.0.oX&.0.",
"-.-.;.;.3.4.oXoXXX7.u   .     .   l.,X(.Y.m I I m I n P N.N.n.&           % ,.=.;.q.9.7.&.;.;.XXXX@X",
"-.;.-.;.|.XX.X+X9.d.u   .         l.(./.L.x x v M M x L b.b.v.&           - #Xe.e.&.-.-.%.<.@X|.@X0.",
";.;.q.:.%.XXoX..` o.z p a p p a p H./.!.Y.k.k.k.K J H G.F.A.Z.4 1 2 2 2 1 a _ | _ @.;.;.;.&..XoXoX0.",
"-.q.;.=.-.-.1.#     j.,X(.(.(.(.(./.~./.!./././.C.n.b.D././.~.C.n.n.N.n.N.x..     ! 7.;.r.-.;.1.w.<.",
";.r.;.;.;.;.:.#     g.(.^.^.~.^.!.~.~.~.~.~.~.~.C.m.b.S./.~.!.n.b.b.b.b.n.x.X     ~ e.=.;.;.;.&.-.;.",
"w.9.q.q.=.<.:.#     g.(.^.~.^.~.~.!.~.~.~.~.~.~.C.m.b.S./.~.!.V.b.m.m.m.n.x.X     ] q.=.;.-.9.9.;.;.",
"q.r.q.;.=.9.;.#     g.(.Q.1XeXeXeXeXeXtX0X~.~.~.Q.Q.Q.Q.~.~.~.Q.T.Q.D.b.n.x.X     ~ 7.*.,.*.6.i.=.;.",
"q.q.9.-.$.;.3.-     g.,X!.2XrXrXrXrXrXrXwX!.~.~.~.~./.~.~.~.~.~.~.<XJ.b.n.x.X     ~ .X%.$.9.q.q.<.;.",
";.;.-.q.8.u.$X@     h._.E.>XrXrXrXrXrXrXwX!./.~.~.~.~.~.~.~.~.~.~./.J.b.n.x..     o.&X6.7.*.t.w.q.:.",
";.;.;.}.) R ) f f f ].6X7X5XrXrXrXwX9X8X7X~.~.~.~.~.~.~.~.~.~.~.~./.J.b.n.v.s s 6 z W R | ;.;.;.;.;.",
";.=.e.W     @ W.,X_.qXrXrXrXrXrXrX3XK.R.R./.~.~.~.~.~.~.~.~.~.~.~.<XD.b.b.n.n.N.B.3     9 7.$.*.;.6.",
"&.*.e.W     @ U.~.E.8XrXrXrXrXrXrX4XR.>X~.~.~.~.~.~.~.~.~.~.~.~.~./.J.M.n.b.b.m.n.3     9 q.%.&.;.;.",
"9.q.e.W     @ U./.R.8XrXrXrXrXrXrX4XR.~.~.~.~.~.~.~.~.~.~.~.~.~.~./.J.M.n.b.b.b.N.3     > 7.$.oX9.-.",
"q.9.p.W     @ U./.R.8XrXrXrXrXrXrX4XR.>X~.~.~.~.~.~.~.~.~./.~.~.~.<XJ.b.n.b.n.b.N.3     0 #X>.@X-.;.",
"q.9.s.Y     @ U./.R.8XrXrXrXrXrXrX4XR.>X~.~.~.~.~.~.~.~.~.~.~.~.~.~.J.M.n.b.b.b.N.3     , =XXX1.$.;.",
"e.9.p.k     @ U./.E.0XrXrXrXrXrXrX4XR.~.~.~.~.~.~.~.~.~.~.~.~.~.~./.J.b.n.b.n.m.N.3     > *XXXXX|.$.",
";.;.8.)     @ U./.!.3X5X7X5X5X5X5X1X~.~.~.~.~.~./.~.~.~.~.~.~.~.~.<XJ.b.n.b.b.b.n.3     9 *XXX+X<.-.",
"&.%.r.k     @ U./.~.!.R.R.R.R.R.R.!.~.~.~.~.~.~.~.~.~.~.~.~.~.~.~.~.J.b.n.b.n.b.N.3     > oX Xw.;.-.",
"$. X=XR     @ U./.~.~.~.>X~.~.~.>X~.~.~.~.~.~.~.~.~.~.~.~.~.~.~.~./.J.b.n.b.b.b.N.3     > u.%.=.-.9.",
"$.*.r.k     @ U.~.~.~.~.~.~.~.~.~.~.~.~.~.~.~.~.~.~.~.~.~.~.~.~.~./.J.M.n.b.n.b.n.3     > 7.=.&.-.;.",
"9.=.8.)     @ U./.~.~.~.~.~.~.~.~.~.~.~.~.~.~.~.~.~.~.~.~.~.~.~.~.<XJ.b.n.b.n.m.N.3     > #X&.&.<.<.",
".X$.q.k     @ U.~.!.~.~.~.~.~.~.~.~.~.~.~.~.~.~./.~.~.~.~.~.~.~.~./.J.M.n.b.b.m.n.3     > #X-.=.;.-.",
";.<.e.T     @ W.(.(./.~.<X~.~.~.~.~.~.~.~.~.~.~.~.~.~.~.~.~.~.~.~.<XJ.b.n.b.n.n.B.3     : p.*.<.-.;.",
"|.|.&.@.( ( _ g p p f.S.Z.S.~.~.~.~.~.~.~.~.~.~.~.~.~.~.~.~.~.S.A.A.V.b.n.v.4 2 1 / | Q  .q.w.*.;.;.",
"r.>.=.q.r.q.3.O     B n.M.V.!.~.~.~.~.~.~.~.~.~.~.~.~.~.~.~.!.n.b.b.b.b.n.x.      _ d.6.t.*.;.*.;.-.",
"-.-.-.*.i.;.$.#     V N.b.V././.~.<X/./.~./././././././.~./.~.V.b.b.b.b.n.v.X     ) 7.-.-.-.-.;.;.&.",
";.*.-.-.$.>.,.O     V N.b.V.I.I.P.P.P.P.P.P.P.P.P.P.P.P.P.P.P.n.b.b.n.b.n.x.X     ) 7.=.;.;.;.q.-.>.",
"&.*.9.-.-.>.XX$     V N.b.b.b.b.b.b.b.b.b.b.b.b.b.b.b.b.b.b.b.b.n.n.b.b.n.x..     _ e.6.w.-.;.r.*.>.",
"6.w.*.&.-.=.{.%     V N.b.n.b.b.n.b.b.n.b.b.n.b.b.b.b.b.b.n.b.n.b.b.b.m.n.x..     _ y.9.;.;.-.$.-.&.",
"r.q.9.-.>.@X,.%     V B.m.n.b.n.b.n.b.b.b.n.n.n.n.n.n.n.n.b.n.b.b.n.n.n.V.v..     ) s.9.w.q.$..XoX&.",
"q.q.q.*.=..X%X....#.j * ; 4 n.b.b.n.b.n.c.H H J J J H G n.b.n.b.b.N.A * ; 5 o...| +.r.q.9.;.-.9.0.-.",
"w.q.9.-.=.<.oXoX+X&Xu     = m.b.m.b.m.n.c.M n M b b M P n.m.b.m.b.n.d     % %Xr.7.;.*.;.-.-.-.-.&.;.",
"6.;.&.;.-.3.<.1.>.<.u     = N.N.N.N.n.B.c.v c c c c x L B.n.N.N.N.B.C     % %X*.&.&.&.&.&.0.;.-.&..X",
"-.&.;.;.-.;.3.O.$.6.Q t r j S S S S S B L '.[ [ [ { { U D S S D S D h y t l ,.&.6.;.>.w.&.*.*.-.<.9.",
"-.*.-.-.-.<.-.|.0.=.7.r.s.,..           e a.7.7.6.6.d.'         .   k #Xu.8.-.;.;.-.XXq.&.&.-.&.w.w.",
"0.&.9.&.6.r.$.XX|.$.=.*.r.@.+       .   t r.;.:.%.:.7.)             k 7.-.&.&.9.;.9.q.&.9.*.<.&.0..X"
};
