/* XPM */
static char *exit[] = {
/* columns rows colors chars-per-pixel */
"50 50 199 2 ",
"   c #14150E",
".  c #171611",
"X  c #181712",
"o  c #161912",
"O  c #1B1A15",
"+  c #1E1D18",
"@  c #211E16",
"#  c #211F19",
"$  c #1F2017",
"%  c #24221C",
"&  c #29261E",
"*  c #2A281F",
"=  c #232017",
"-  c #272621",
";  c #292721",
":  c #2C2B24",
">  c #2E2E29",
",  c #312E26",
"<  c #312F29",
"1  c #2C3125",
"2  c #2F3028",
"3  c #313127",
"4  c #34332C",
"5  c #39362E",
"6  c #343B2C",
"7  c #39382E",
"8  c #363631",
"9  c #393732",
"0  c #3C3B33",
"q  c #3E3E38",
"w  c #413E36",
"e  c #433E3A",
"r  c #39442F",
"t  c #3D482F",
"y  c #3E4235",
"u  c #3F4A36",
"i  c #3F4039",
"p  c #414135",
"a  c #44423B",
"s  c #49463E",
"d  c #46493C",
"f  c #494A3E",
"g  c #424936",
"h  c #425335",
"j  c #44513B",
"k  c #485439",
"l  c #465C3C",
"z  c #495B3E",
"x  c #435934",
"c  c #4B633E",
"v  c #46663A",
"b  c #51683D",
"n  c #4A713B",
"m  c #51763C",
"M  c #464540",
"N  c #4A4740",
"B  c #464B42",
"V  c #4C4A42",
"C  c #504D46",
"Z  c #534F49",
"A  c #4D5C42",
"S  c #4D5744",
"D  c #515047",
"F  c #515E45",
"G  c #54524A",
"H  c #59554E",
"J  c #525B4A",
"K  c #59584F",
"L  c #5A5751",
"P  c #5A5851",
"I  c #565F51",
"U  c #4C6241",
"Y  c #556346",
"T  c #54644B",
"R  c #5A6A4E",
"E  c #506A49",
"W  c #5C734D",
"Q  c #5B7C4D",
"!  c #587845",
"~  c #596351",
"^  c #5C6A54",
"/  c #5B7350",
"(  c #637B4F",
")  c #617455",
"_  c #53883C",
"`  c #5C844B",
"'  c #5F8B4E",
"]  c #578844",
"[  c #5E9F48",
"{  c #628B4E",
"}  c #649D4B",
"|  c #628651",
" . c #6A8C5C",
".. c #638F51",
"X. c #6C9B5D",
"o. c #679555",
"O. c #62A44C",
"+. c #6AB24F",
"@. c #75B94D",
"#. c #6BA558",
"$. c #72AA5B",
"%. c #6AB152",
"&. c #6EBE5C",
"*. c #71B75A",
"=. c #6A8D61",
"-. c #6E9660",
";. c #759C67",
":. c #7DBA68",
">. c #5DD542",
",. c #64D745",
"<. c #66D846",
"1. c #6ADB46",
"2. c #66D748",
"3. c #67D848",
"4. c #6ADB49",
"5. c #68D745",
"6. c #72DE46",
"7. c #72DF49",
"8. c #6DC152",
"9. c #71C359",
"0. c #76C95C",
"q. c #79C95A",
"w. c #6EDD50",
"e. c #72DD54",
"r. c #76D45C",
"t. c #79DA5C",
"y. c #7BDA58",
"u. c #6BC94B",
"i. c #6EE046",
"p. c #6FE249",
"a. c #73E147",
"s. c #7BE347",
"d. c #74E349",
"f. c #7BE449",
"g. c #75EB48",
"h. c #7CE94B",
"j. c #75EB47",
"k. c #74E254",
"l. c #7DE555",
"z. c #77E258",
"x. c #7BE25C",
"c. c #7BCD63",
"v. c #7FDC64",
"b. c #7EE361",
"n. c #81BB69",
"m. c #84B562",
"M. c #83AE75",
"N. c #87B676",
"B. c #93B97E",
"V. c #8DD753",
"C. c #95D65E",
"Z. c #82E547",
"A. c #82E847",
"S. c #8CEA46",
"D. c #82E649",
"F. c #88E74B",
"G. c #83E94A",
"H. c #8DEB4A",
"J. c #92ED4B",
"K. c #98EF4C",
"L. c #94F24C",
"P. c #9DF34E",
"I. c #86EA59",
"U. c #91EE51",
"Y. c #90E753",
"T. c #96F153",
"R. c #99F355",
"E. c #A2F44D",
"W. c #86CF6C",
"Q. c #85C967",
"!. c #92CC6C",
"~. c #84D464",
"^. c #82DA66",
"/. c #84D36B",
"(. c #85DA6C",
"). c #88D266",
"_. c #97DA6B",
"`. c #92D465",
"'. c #8AC777",
"]. c #94CE7B",
"[. c #8BD475",
"{. c #8EDC75",
"}. c #92DB7A",
"|. c #98DF7C",
" X c #81E564",
".X c #8CEA61",
"XX c #8AE769",
"oX c #9BE965",
"OX c #93E968",
"+X c #92F06C",
"@X c #8DE273",
"#X c #98E777",
"$X c #95E473",
"%X c #A1ED6A",
"&X c #95CA85",
"*X c #9ED688",
"=X c #9DE683",
"-X c #A3E489",
";X c #A8E891",
/* pixels */
"H.J.2.4.2.7.1.3.4.2.4.3.4.2.1.d.1.i.i.,.1.d.i.5.i.1.<.<.1.1.d.d.5.d.d.5.d.i.<.<.<.G.s.<.<.4.h.d.d.d.",
"7.f.2.4.2.a.L.1.1.h.2.4.4.4.d.d.5.i.i.<.5.1.i.i.d.i.1.<.1.j.d.a.<.5.5.1.<.5.<.<.1.<.<.5.4.4.1.f.d.d.",
"3.2.5.5.1.<.f.G.H.h.<.3.<.f.d.1.<.1.a.<.<.i.i.a.a.a.a.<.5.5.1.<.5.5.,.2.1.1.5.i.1.<.4.<.a.d.4.h.d.d.",
"4.3.7.2.d.H.d.G.G.<.3.<.<.<.,.a.J.1.J.<.1.1.i.d.d.j.a.<.5.a.<.6.,.d.s.,.1.1.5.i.a.1.1.<.7.d.4.d.h.d.",
"4.<.1.4.2.F.G.A.G.3.3.1.i.,.3.3.6.2.>.5.5.5.1.i.d.a.4.3.<.<.,.f.H.H.Z.,.1.1.a.a.d.d.1.<.2.<.4.a.i.d.",
"h.d.<.4.<.1.f.f.a.<.1.<.d.4.a.,.,.,.Z.5.,.<.1.i.1.<.<.a.1.5.5.1.Z.S.S.5.,.5.1.d.d.d.4.3.a.<.4.3.2.4.",
"1.h.<.1.3.3.<.1.<.<.1.p.j.g.g.3.i.i.L.1.A.1.1.1.4.4.<.j.d.i.1.i.U.T.T.I.7.4.1.a.d.h.4.7.K.,.,.2.4.h.",
"d.d.4.4.2.a.<.d.a.,.4.V.n.N.B.B.M.N.Q.).C.0.0.0.0.c././.).W.c.'.].].'.&X&X*X{.$X$X{.[.}.=X;X#Xd.4.h.",
"d.d.d.7.D.d.2.1.<.6.l.#.d e e e Z K H F R R Y Y R E T T Y Y J J k K F J I ~ ) ) ) ^ R A A A ~ [ p.i.",
"a.d.d.f.f.<.5.<.2.F.R.Q d f N N K K f C H H G Z G f D s D V D V s G C f D H H f G D V 3 3 4 1 -.k.>.",
"<.4.3.2.,.4.f.<.<.7._.Y s V N C K H s H H Z G Z C s G V V D D s s G C C Z K H C G D f w w p h ].l.<.",
"<.<.<.1.i.1.f.<.2.I.m.i a a w D K G a H Z C G Z V V C G B s f a C Z C C Z K Z C G G a 0 a p ! @X4.<.",
"a.<.2.3.i.d.d.<.,.x.| 4 0 7 0 K H V V H Z Z Z G V s C V V e s a C C C C H K C G G H 7 7 w t } b.2.<.",
"f.1.a.4.,.1.1.5.4.(.l 7 0 0 B K K V Z G G H H H a C C C e a a V H Z C Z K H Z K P Z e a B l &.U.G.,.",
"d.a.d.1.3.<.4.,.k.:.0 9 0 9 2 0 e 7 9 w w w e w 9 w w w 9 w w 5 e e e s V s w a e e s e d ] t.4.<.<.",
"d.d.d.1.,.a.J.1..Xo.1 4 7 3 O O @ # @ % & & & & @ @ # # & & ; @ # & # @ # @ @ % % w s s k } z.<.1.<.",
"d.d.7.5.3.2.D.H.#XE 4 4 2 % + O @ & & & : ; ; ; : & : & & % % & & & # & & @ @ @ & 5 w w x @.p.4.s.5.",
"1.4.4.4.2.6.D.R.!.j f a i ; = + 4 p p a M M 5 w V B V s s 5 a s e e s e , w w w w , 7 7 v y.H.h.s.d.",
"<.1.4.4.2.2.f.I.X.p a a 9 O O = 8 q a s M B q M s C s V f e C V C V C s w e e w w 7 7 p ] e.<.f.A.A.",
"<.<.<.<.a.<.2.b.Q p s s 7 O X X + % % - - - - - & & & : , & , 4 4 4 , , & & , * , , 7 h O.k.6.A.h.A.",
"a.f.<.<.d.i.4.[.j 4 0 0 : O X O o X X X X O X X O O X O @ + @ @ @ # # @ @ O @ @ , , 5 x 8.4.,.a.d.1.",
"f.f.<.<.i.d.I.n.6 8 0 0 * O O O X X + - # : : : ; - - - : > : : , , & , , , , 4 w 5 0 m y.4.4.<.5.5.",
"f.G.6.<.d.i. X-.0 0 p 9 % O + O X X - 8 8 q q 8 4 4 4 8 a a p w w w 5 f a a V e e d f } l.3.3.,.L.a.",
"s.G.6.<.1.<.(.W y w p 4 + X X X O X O - - > q 9 q q i 8 8 9 8 5 4 5 < a e w e e w w h %.d.,.a.4.5.1.",
"6.<.2.4.2.4.W.S 9 9 0 : O o X X O O X + + O + + % - - # O % % % % - O # : - , N a a l 9.4.<.i.1.5.5.",
"4.<.3.,.Z.D.'.u 4 4 4 % X X O O X X X + - - % - % # # X + + + + + % - + # @ : w 7 6 n t.i.1.,.5.L.a.",
"1.<.G.J.H..X-.y 9 q 9 % X O O O X X X > 8 q q e M 0 < : > : > : : 8 8 9 9 8 w e 0 r [ w.d.i.i.<.6.5.",
"a.<.1.D.H.oXQ i q e 8 % + : O X O X X > 8 8 q q q 8 < 8 > 4 8 4 2 0 0 9 9 w N a 0 l u.h.a.d.d.<.,.5.",
"1.4.1.H.T.`.c y 9 q ; # X % % X X X X X + + # # # % X + - - - - - ; 4 5 7 a s p y n 4.<.d.d.i.<.6.5.",
"<.<.4.<.x.#.r 5 < > ; @ % O + - X X O X X X + + O X + X + + + + # O X + @ < 5 5 4 _ 4.<.1.i.5.<.1.<.",
"4.1.4.,.v.` u a q < > O % + X + O X O X X : > : - 8 > > - : - : 3 3 , , , 5 7 7 p @.f.<.<.<.5.a.<.2.",
",.a.p.w./.v y 0 q > X + > X X + + X X X + 8 8 > q q q 9 9 q > M s s s s e w e w k V.H.a.5.1.1.A.5.a.",
"4.4.a.I.n.u p p 0 : + O - % X O O - X X O % - - - : > > > : : e i q 0 9 w 0 0 9 b Y.H.F.,.<.<.f.6.F.",
"a.d.a.+XX.6 7 7 1 = - % O - : X X O O . X X X X X O O + + O X - - - % # , 4 3 4 | R.S.7.,.6.1.a.Z.d.",
"1.d.d.#XW p a e , # % : - X + O O O + + X X X O + O # # O O O O X o   @ 0 5 0 7 $.G.6.2.<.1.Z.F.f.2.",
"<.4..X].z f s V 3 ; ; % - O O + o O o O X X + : > 8 8 8 : : - - % + + 9 V a p d c.1.2.2.1.,.<.A.<.4.",
"<.,.@X;.y f f s : % - - - + o o $ O O O + X & 4 8 4 5 5 < : : > > > : 0 0 4 3 c y.i.<.<.1.,.f.G.2.3.",
"<.5.$X/ 4 e w 4 % O + % $ O o o         X X   X O O @ % + O # + $ = : a 0 7 4 { p.a.i.d.d.A.F.a.4.4.",
"<.1.^.z w 0 4 4 7 5 4 - 4 : 2 2 * 3 : > : : : , < ; : ; : - > : % + & 0 4 4 6 *.h.d.i.f.f.F.G.a.J.f.",
"5.p.9.k w w e w e 0 9 3 s i i q p V a M a s V V a w V e q a M B V s 0 e 7 5 h r.p.d.<.a.F.h.h.F.f.2.",
",.w.O.g w a 7 p w 7 w 4 w a a 6 w s a d w a s V 0 0 N 0 w 0 a s f a a q 0 7 ` k.1.3.3.a.F.G.G.F.d.3.",
"<.7.] y 7 7 : 7 5 9 0 : p a i 4 w w w 7 5 a p 0 2 0 a 9 0 0 w w a i 0 6 0 a +.a.3.3.<.<.1.f.f.1.<.4.",
"<.a.%. . . .{ | | o.' ` ' ' { Q | ( W Y Y ^ ^ ~ J ~ J Y A A A F S B M B V _ 7.7.3.4.<.<.2.2.<.<.4.<.",
"4.d.k.OX X Xx.I.x.z.z.z.z.z.e.z.t..XOX^.{.}.-X;X;X#X(.v.v.v.t.oX(._.[.*X/.i.3.4.<.F.a.2.1.d.<.<.d.h.",
"j.d.<.6.,.,.,.,.,.5.s.,.5.,.5.1.,.>.>.a.1.,.<.a.d.1.5.1.5.s.A.S.A.H.1.p.<.3.4.4.5.7.K.,.F.Z.,.5.3.f.",
"h.7.d.<.<.1.,.s.G.a.Z.6.a.,.a.i.2.D.6.s.S.1.<.<.<.2.<.<.<.<.H.H.H.Z.<.,.3.4.4.3.5.5.P.s.E.1.5.<.3.d.",
"d.h.a.2.1.1.a.5.a.f.h.A.j.,.1.5.<.1.S.S.S.S.5.<.1.d.1.1.3.<.D.H.f.4.2.1.6.5.3.1.E.7.D.J.H.D.f.2.<.d.",
"d.d.7.2.5.5.1.5.1.s.A.A.6.,.1.1.2.4.f.S.H.H.a.,.1.i.d.d.4.,.2.d.7.<.,.L.E.2.3.2.s.E.H.H.F.J.<.<.4.1.",
"d.4.4.3.3.3.5.4.5.d.f.a.<.<.a.1.<.1.F.S.H.Z.5.<.,.i.j.a.<.1.a.h.4.<.<.6.6.4.4.5.<.J.J.H.H.J.5.4.2.2.",
"4.4.2.4.4.3.4.<.2.2.5.5.a.6.1.d.1.1.>.a.6.<.<.<.1.5.i.<.a.d.f.d.<.<.<.<.2.3.4.4.1.6.H.J.F.6.5.4.4.<."
};
