/* XPM */
static char *grass[] = {
/* columns rows colors chars-per-pixel */
"50 50 28 1 ",
"  c #64D746",
". c #66D847",
"X c #6ADA47",
"o c #65D748",
"O c #6AD64C",
"+ c #67D848",
"@ c #6BDB48",
"# c #73DE47",
"$ c #72DF48",
"% c #78DF48",
"& c #6BD450",
"* c #71DA50",
"= c #79DF51",
"- c #6FE04A",
"; c #74E047",
": c #74E24A",
"> c #7AE54A",
", c #7CE94B",
"< c #79E051",
"1 c #7FE058",
"2 c #84E64A",
"3 c #88E74C",
"4 c #84E94A",
"5 c #8CEA4B",
"6 c #93ED4C",
"7 c #98EF4D",
"8 c #9AF14E",
"9 c #8BE452",
/* pixels */
"+++@X+@,:,-..::,2>>;XX.#% o @>::,-. XX@X-.@X263$.X",
"X@@.;@X;::@@.;;,344XX2.6# :$X::,:X@5X; :X @@+@..@,",
".X:@,...XX ,:++;::XX.556 X;$++-@..@5.::,.X@-+@@X@X",
":X:>--- 63.@++@X .X.>3626> X+..$5X+.-;::,-.-@:;XX@",
";-,::,X.@.63 .-,++XX$6562 X.+$%@5+@+-,-,: +$,>.+.5",
">>:::-X@o @@.@ :$X-.@262%o%6.3$. @,@@-:-@.++-@.$;5",
"6$@--.@.$3.+.:,@;:@X@ XXo+o652 +@.@@ @@@@.;; @@.38",
"%$;  @@ 6, +@.:,::XXX;-.@+o%6,++:: @ @ @+ 5,.+$+%,",
" + #%+2;2@5.@;@:::;XX@,:>+$+XX++X4>4XXX.X%32: @: .",
":@;X+ 55282 +:;:,>@o@:-,@+@++X@$4>5X.X>X 566X;$.$X",
",4@++%>662.%X+X-@@XX.::>@.++;@+X245@.@:-X%>%XX:@,X",
"@,::o%656>3%+++X@: $:.;@+:$ ;:.+X$:+-;>-XXX@+ :>@+",
"@,:@+@256>%X.+X.:-.@X%.X+:$@;:@@X ++@>:;.X+@+;:$.:",
"@;.X@XXXXXX >:X@::@.X% X+.o$,::.@X+o+@++X,+@@+++%X",
"..:$,XXXX...@..:::@@.7%2;++@--@ 26@3+++@X,23;.-XXX",
"+@++XX.+>$$$.:X@;-@.%>66$+:+.@.@;582.$X ,,2>..-:.:",
"X$: 2: --,:XXXXX.@. 566>.@@@+@.@736@ 63 %34>.@@:::",
"XX7%2X.:::: X4XX++:-.252.X@@@;@+:35$+@@+ +:-.;::>:",
"X 272 @@::;. 53 @+:@..@@XX@;::.@+@@+++@+:@.@@.>::,",
"X.X>%o++X@X@4 3;2+@+@-.+X@;::@:@@++++@,:,XXX..-:>@",
"XX>...:@X.+ 56362 $+@,+.;@:::,:.:@.-@.@>-:@ 2> X+-",
"@@:X@X,. -+:X356;$o@;:-@++::::++@:-,+@@>::@X2>.@X;",
"++.;-:.;$+.>22757%o+::,@XX+--@@@.:,;++@:-.X@ +o63 ",
"@+.@<<:>X+@$;355>+++@;-.@$.++ 63 @$++.++.X:.+@.@@+",
"+X@$<9<@@+;X.+-@ ;$+++o$XX-++X@X+@+@.2%+-@::,@%XX3",
"O+&=<<<*:&$++X:: ;$o@.X+@X-:X:.X@.@ %7.+.:::: ;325",
"9&@*<<<O*&@.,@+@+.+$ 23 @@X:::.@, 2%3X2% -:,;+;65;",
";$+o.@@..@o-;..63 +7%8X.+:>;>:@X. $6257...@;@X5656",
" XXX.@.:.-;:X,$X@@;,72.X@.,::,@.o##366X$+@++@X2666",
"XXX5;:%@@@,:,$.+..52556 XX@::;@+X.5656;5.@@@+++;>@",
"X.;;43X.+;::;@:.+o;666,.+@X@@ .@#o%555:%+++:>+X+oX",
"- ,44:.+.:,>:::.@X $>%.@X@,.@5X.XX o@@+X@+@+:@X@X:",
"X@@:4:.@;.@$;+++@@:X X+@@.X.@5@X;,X:@@.,: :,@::-+X",
" .@@@@@.@+XX..+@@+@:+.@$$3.@+ X@@:,;+@+@@..::::.X@",
";; @@+@:X@:.%X@,++.;:.+@.4;2:.+X,::@@+.@@@-X,:::+X",
"63- @.:-..++%>>, @@;;@@@X:4,X;+X-::@@:.:@.:-:::-  ",
"35;X;X:.:X@@$42;>+$>::@+>2,>4-X......:::++++:-- $%",
"56@.::-,;X@.,2,3>+@$$$++-423>.@:@.@5X@,;+@X:X .@+6",
">XX@;,:-.@X.>444@+++++++ @:$.XX:..$5X+@+@$@@@:.@+>",
".X.@:,,-:@ XX$;X++@@+:@$5.$X.XX @:. XX++++@+@5+.@+",
"@++@:::;-X;XXX.X:@,@+:;@5.-:.;X@ 6X>;.;@:>.@>>:@+@",
"@+@++@@+. >5.4..:,-@@.@+ @@::;.@.256$X@,>@@.444@+;",
",@>.@@ ++@@662..@,:,.;8@.:,:,:@X72652X+::,:.::>++X",
":,$@+@5X.26362%.@>:@.@@+..:,::@.%7562 +:,@.++++@+@",
":::: @5X@ 6656# +X+@@+ :@.@::-@+X253:X++X.XX@+X@@,",
",::@XX X$ %55>XXX@@@% X,, +@@..+X+X.++@>.X#.+X$: :",
"@-@@X%+X $.@#..X@5$++.;>;$@+....XXXX++@>X@.X2.5%.@",
"@@.-$ ;@+%....#.;:+@@+-53,o;@@@@>.63 @:;:@X.555X@.",
"@.@;-.@::-@.@.:,,$6$:.@%:$XX.;:;:.@@:X;::@ >5626;X",
"@@@..@;,::,++@@4,3; XX+..+@X-+>>XX.X>+@@X..;6562 X"
};
