/* XPM */
static char *hero__copy_[] = {
/* columns rows colors chars-per-pixel */
"50 50 213 2 ",
"   c #010101",
".  c #040904",
"X  c #0D0A04",
"o  c #050B0D",
"O  c #060608",
"+  c #110F08",
"@  c #170D00",
"#  c #0B130B",
"$  c #17170B",
"%  c #060D10",
"&  c #090F11",
"*  c #0B181E",
"=  c #08141B",
"-  c #141B13",
";  c #201E0F",
":  c #162312",
">  c #1D2B18",
",  c #1D3416",
"<  c #0F210E",
"1  c #25200A",
"2  c #2D2A14",
"3  c #292512",
"4  c #362D15",
"5  c #223719",
"6  c #3E3418",
"7  c #3A3519",
"8  c #0B1A20",
"9  c #0F232D",
"0  c #10242D",
"q  c #122D36",
"w  c #15323C",
"e  c #243323",
"r  c #313F29",
"t  c #473C1B",
"y  c #28461D",
"u  c #284621",
"i  c #2C5121",
"p  c #335C26",
"a  c #314829",
"s  c #39672D",
"d  c #55461E",
"f  c #48441F",
"g  c #4C4622",
"h  c #4E4923",
"j  c #584E23",
"k  c #555026",
"l  c #695826",
"z  c #725E29",
"x  c #604F24",
"c  c #447737",
"v  c #6A652D",
"b  c #6A662D",
"n  c #78642B",
"m  c #787033",
"M  c #163844",
"N  c #0D3044",
"B  c #1B4454",
"V  c #1E495A",
"C  c #1A404E",
"Z  c #2D535C",
"A  c #1F5166",
"S  c #215266",
"D  c #215669",
"F  c #24596C",
"G  c #255D72",
"H  c #26647C",
"J  c #29657C",
"K  c #29697F",
"L  c #276074",
"P  c #54674E",
"I  c #4A7270",
"U  c #847B37",
"Y  c #8C7333",
"T  c #488737",
"R  c #578E3C",
"E  c #4E993A",
"W  c #549B3B",
"Q  c #63983B",
"!  c #54A33C",
"~  c #5AA43D",
"^  c #57AD3D",
"/  c #59B53F",
"(  c #63A73D",
")  c #599D45",
"_  c #568D44",
"`  c #6C9452",
"'  c #5AA645",
"]  c #5BB542",
"[  c #65A844",
"{  c #67B946",
"}  c #74B848",
"|  c #7DAE50",
" . c #5FD344",
".. c #5EC043",
"X. c #64C344",
"o. c #69C947",
"O. c #64D745",
"+. c #66D946",
"@. c #6ADB46",
"#. c #66D748",
"$. c #68D749",
"%. c #67D848",
"&. c #6ADA49",
"*. c #73DE46",
"=. c #71DE4A",
"-. c #7CDE49",
";. c #79DA58",
":. c #74CC4A",
">. c #6CE146",
",. c #6CE44A",
"<. c #6FE84C",
"1. c #73E247",
"2. c #7CE347",
"3. c #74E349",
"4. c #7BE549",
"5. c #72EA4B",
"6. c #7AEB4B",
"7. c #77E847",
"8. c #7BF14C",
"9. c #7AE754",
"0. c #7CF253",
"q. c #7DFB54",
"w. c #75F653",
"e. c #8F873A",
"r. c #AB8C3C",
"t. c #B3923D",
"y. c #BA9841",
"u. c #A59A44",
"i. c #B5A847",
"p. c #BDB64C",
"a. c #D9AE47",
"s. c #DAAF49",
"d. c #D4AC47",
"f. c #DDB24A",
"g. c #D5B84C",
"h. c #C9A245",
"j. c #E1B64B",
"k. c #E5B94D",
"l. c #EABC4D",
"z. c #83D94A",
"x. c #81CA4A",
"c. c #80E447",
"v. c #83E649",
"b. c #84EA49",
"n. c #8CEA4A",
"m. c #84E849",
"M. c #93ED4B",
"N. c #8AF34C",
"B. c #97F44C",
"V. c #93E35A",
"C. c #8AF958",
"Z. c #A4FF5D",
"A. c #D9CB54",
"S. c #DED459",
"D. c #E5C24F",
"F. c #EDC050",
"G. c #E6CA52",
"H. c #E9CD53",
"J. c #E3C550",
"K. c #FDCC54",
"L. c #F6C952",
"P. c #E9D658",
"I. c #F3DD5A",
"U. c #F1D957",
"Y. c #F5E35D",
"T. c #F8E55E",
"R. c #FBE75C",
"E. c #D3DF79",
"W. c #EEE963",
"Q. c #FDEB62",
"!. c #F8E861",
"~. c #FFF364",
"^. c #FFFB64",
"/. c #FEF568",
"(. c #FFFD6A",
"). c #F7F165",
"_. c #FFFF75",
"`. c #286A81",
"'. c #2C6B86",
"]. c #2E728D",
"[. c #357388",
"{. c #2E7693",
"}. c #337793",
"|. c #318095",
" X c #3587A8",
".X c #3A95BA",
"XX c #3B98BB",
"oX c #3690AC",
"OX c #3C9CC2",
"+X c #3FA4CD",
"@X c #3FAAD4",
"#X c #40A4CD",
"$X c #41ABD5",
"%X c #43AEDA",
"&X c #41A7D3",
"*X c #42B2DC",
"=X c #46B9E4",
"-X c #47BAEA",
";X c #49BDED",
":X c #45B6E3",
">X c #49BFF1",
",X c #4AC2F5",
"<X c #4CC6FA",
"1X c #4DCAFE",
"2X c #4FD3FE",
"3X c #51D6FF",
"4X c #52DCFF",
"5X c #72DEF4",
"6X c #55E3FF",
"7X c #56E9FF",
"8X c #5AF3FF",
"9X c #4EE2FF",
"0X c #DDF081",
/* pixels */
"3.3.3.3.6.+.O.O.+.&.&.=.&.&.O.*.m.n.2.@.@.@.+.@.%.+.+.$.3.3.0.W : , , , , 5 2 { 6.+.&.=.;.2.@.+.+.+.",
"&.3.3.2.1.O.4.4.&.;.=.3.$.@.@.O.&.@.+.O.3.3.+.@.@.+.*.+.,.3.C.T             X / 6. .2.*.@.n.O.+.3.@.",
"O.@.@.@.O.+.4.v.&.4.3.@.@.$.@.1.O.,.&.%.@.O.O.@.1.@.6.] > : : -   b P.A.P.f   { >.O.@.M.n.c.+.@.3.@.",
"&.O.O.2.4.+.O.&.1.3.3.3.3.@.+.1.@.4.@.@.O.2.@.@.4.3.3.'     O +   e.(.T.^.k   / >.@.v.n.n.m.M.+.+.+.",
"+.1.+.4.v.+.@.+.3.3.3.3.@.+.+.1.4.@.O.$.*.M.@.5.6.o.: #   h !.P.P.I.~.G.F.f   / 1. .m.M.n.M.@.+.@.O.",
"*.m.%.O.O.3.1.O.@.3.3.@.@.@.O.,.@.@.O.*.*.m.z.:.;.{   X + v /.Q.Q.!.R.g.h.t   ..>.+.*.n.n.2.@.O.n.2.",
"n.*.%.&.%.%.&.%.%.&.&.+.+.&.v.&.$.@.@.3.B.V., O O .   7 Q.Y.!.Q.Q.G.l.x     . X.@.@.+.O.@.O.$.O.*.B.",
"m.=.$.@.4.@.$.@.$.$.%.@.O.&.M.&.$.&.X.{ :.} &   3 2 : l ~.!.Q.!.!.J.l.d   : y X.>.+.@.1.@.+.@.@.O.n.",
"&.&.%.+.4.7.b.5.&.,.<.>.3.4.n.b.@.9.e         $ T.Q.Q.R.Q.Q.~.P.d.j.L.x   [ 0.*.@.+.+.1.3.7.@.@.@.O.",
"$.=.+.2.2.b.z./ ] { { ] :.z.x.o./ :.>   7 t 7 k T.Q.Q.T.I.I.I.H.j.t.r.t   ~ 8.3.@.+.1.1.3.1.+.@.@.$.",
"=.&.&.@.b.N.[             .           O S././.~.Q.Q.~.I.s.f.s.s.l.z   .   ! 5.@.@.O.@.2.3.1.+.+.@.+.",
"4.&.+.+.&.6.'   ; h g h g f g h h h h k P.Q.!.T.U.I.U.H.f.j.f.f.l.z   5 y / ,.@.O.*.@.+.@.@.+.3.@.+.",
"3.=.@.$.$.,.'   b _./.(.(.(.(.(.(.(././.Q.!.Q.Y.a.a.s.s.j.s.j.j.l.z   E w.&.4.&.@.@.@.*.O.@.@.1.@.>.",
"3.3.&.%.=.,.)   g e.i.U.G.H.H.H.H.H.Y.!.Q.Q.Q.!.G.D.f.j.j.j.j.a.l.l   T <.@.3.,.@.O.@.@.O.+.+.+.+.3.",
"@.@.+.O.M.b.)   O   z K.k.l.l.l.j.s.Y.~.Q.Q.~.Q.Q.Y.a.s.s.f.s.j.K.n   T 5.1.4.*.@.O.2.M.@.m.@.&.+.@.",
"&.&.O.1.2.B.x.c a   6 n n z z l y.j.J.H.H.H.P.H.Q.Y.H.H.H.D.j.r.z 6   T >.@.@.&.+.@.*.n.B.m.O.@.*.+.",
"@.&.O.m.M.n.v.w._               r.L.l.l.l.l.s.f.Q.Q.~.~.~.U.k.n   .   E q.@.@.+.O.@.B.n.M.@.@.@.@.@.",
"@.@.$.@.2.n.4.#.{ c T T c _ 5   f l j x j l d.f.G.G.J.G.H.k.j.t.Y t   y s / @.@.3.O.*.m.n.@.$.+.@.+.",
"4.@.@.$.+.@.%.%.,.5.<.5.0.C.p             + f.l.l.k.l.k.s.f.s.j.K.z       ! w.+.1.@.+.&.@.@.$.O.1.@.",
"1.>.@.%.&.$.%.%.&.@.*.*.@.,.i   m i.;     X t d t d t z j.f.f.s.j.t.Y t   y p { @.+.@.@.O.@.@.@.1.1.",
"3.3.@.@.3.+.&.@.%.%.6.0.6.C.p   p.(.2                 4 F.k.j.f.s.j.K.j       ] 0.O.>.3.%.@.1.@.1.1.",
"4.>.@.O.@.@.3.3.O.,.W e y a <   i.~.2     X i.u..     + t 4 2 Y k.s.j.t.r.4   , i o.1.3.@.&.+.@.3.1.",
">.+.@.%.&.4.3.O.$.0.c   .       p.(.2     + ).P.              x l.f.k.j.L.d     O { 7.3.3.%.+.+.@.@.",
"+.@.B.@.&.3.%.,.) > -   L =XM   3 7 O     + Y.A..         O   Z 5XI @ Y l.y.y.3   X.<.@.@.+.*.@.+.@.",
"@.@.@.@.$.&.O.,.T   .   {.6XB             + I.A..         .   A 9XH   m k.f.l.4 . X.@.+.@.>.+.@.@.@.",
"@.@.O.@.@.&.$.<.R   F ,XS % o               $ ;               % & G ,XZ @ $ $   . ] >.+.@.+.@.+.1.@.",
"4.@.O.1.3.&.c.6.Q   K 7XD   & & .           O o o o o o o % % %   `.7XA   # < # : X.@.n.@.+.@.+.>.1.",
"3.1.@.@.&.O.m.B.(   `.4X>X-X-X>Xq         % %X>X;X>X>X>X>X;X-X-X-X,X4XD   | 3.o.-.m.2.M.O.&.+.2.1.1.",
"5.1.O.@.+.1.z.V.R   G ;X;X1X1X3XB & * * = 0 ;X1X:X-X-X=X:X;X2X1X1X-X;XV   ' <.*.*.n.M.*.+.%.+.@.4.1.",
"3.@.$.@.O.6.| O O   .   {.6X1X<X,X,X,X,X1X1X3X*X.         B 2X,X3XH   .   E ,.*.n.v.n.M.2.+.@.@.@.1.",
"O.+.+.@.+.<.) O + 2 2 1 [.%X-X1X1X1X1X<X$X#X$X.X9 9 9 0 * G 2X<X3X].* =   E <.O.n.n.n.n.@.$.&.+.+.@.",
"b.2.O.@.+.>.W   v (.!.(.v    X3X<X1X3X1X*     * <X1X1X1X1X1X1X1X1X<X4XA   ! <.O.O.*.2.@.@.@.O.3.1.O.",
"v.2.O.@.3.5.~   v ~.Y.(.b   oX3X<X<X#X.X=   O 9 >X1X1X1X1X1X1X1X1X<X4XA   ! 1.$.*.O.+.+.+.@.+.+.@.@.",
"O.O.O.@.@.8.(   b (.).(.b .  X3X<X1X0         * >X<X1X1X1X1X1X1X1X<X3XA   ' <.O.@.>.@.+.*.+.7.1.O.@.",
"O.&.$.1.2.8.~   g i.u.i.P N OX3X<X1XP h k g   8 <X<X1X1X>X1X1X1X1X<X4XD   ) ,.+.@.4.&.%.@.+.@.b.1.b.",
"1.@.@.+.@.6.!   .       |.8X1X<X1X1X0X~.(.W.@ 8 >X1X1X1X1X1X1X1X1X<X3XA   E ,.+.@.3.@.&.+.@.@.2.b.1.",
"4.+.+.+.%.>.] s e   q F H {.@X2X1X<XE.R.!.H.. 8 <X1X1X1X1X1X1X1X1X<X2XA   ( 6.O.1.3.3.@.+.@.b.2.2.2.",
"@.+.>.3.%.O.v.C.E   K 8XA    X3X<X1X0X/.(.W.@ = <X1X<X1X<X1X1X1X1X1X7XF   { 3.$.@.,.3.@.@.O.1.m.b.b.",
"+.+.3.@.+.O.4.b.T   H 6XF    X2X<X1X` U U m . 8 >X1X1X1X1X1X1X1X1XXX`.q   ! ,.$.$.@.+.O.@.O.O.1.1.@.",
"@.@.+.O.*.@. .,.T   H 6XA   oX9X<X1X0     O   8 2X3X1X1X1X1X1X<X3XG   .   E <.$.&.&.@.3.+.2.2.+.@.O.",
"@.>.&.O.*.n.O.N.T   H 4X.X'.J S $X1X X].}.}.{.].D '.1X1X1X1X<X<X3X`.  p T X.3.=.4.O.@.1.O.2.2.O.3.@.",
"4.@.+.@.@.n.n.B.T   K 4X1X6XB   XX6X2X4X3X3X6X*X  9 1X1X1X1X1X<X4XH   ' C.@.3.9.@.@.O.@.@.O.+.@.>.3.",
"3.*.O.2.M.c.n.N.W   K 3X<X1XOX XF B @X1X,X,X1X%X  q 1X1X<X<X1X<X3XH   e i ^ 3.3.6.3.O.n.n.O.&.3.1.1.",
"5.1.+.O.n.M.n.Z.W   `.4X<X1X1X6XM   &X4X3X1X2X%X  9 3X1X1X1X<X<X6XH   .   ) q.3.*.&.O.@.+.O.+.@.7.>.",
"1.@.+.O.*.N.| a >   H 3X<X1X1X<X+X.XV w M C ,X<XXX Xq G 1X<X2XoX9 J +XC   > y / @.@.@.@.@.1.+.@.@.1.",
"@.%.$.@.O.<.)   O   H 3X<X1X1X1X1X3X9     % =X1X4X+X  w 2X1X4X{.  `.8XA       ^ ,.*.@.+.@.b.@.+.@.@.",
"+.&.@.$.@.,.'   B %X:X1X1X1X1X1X1X<X$X+X#X$X<X1X1X,X@X X9 q 8 G $X:X1X*X&XM   { ,.O.O.@.1.2.1.@.+.+.",
"+.@.O.*.@.7.|   F 4X<X<X<X<X<X<X<X<X1X1X2X1X<X<X<X<X4X.X  .   F 4X<X<X1X4XB   ' <.$.@.O.2.m.b.@.@.*.",
"O.2.@.3.$.,.'   o * * 8 * 8 8 * * * * * * * * * 8 * * =       o * * * * * O   } C.&.*.%.*.*.3.@.+.@.",
"@.>.2.1.O.,.'                                                                 } 9.%.O.&.%.&.;.@.@.+."
};
