/* XPM */
static char *collechero[] = {
/* columns rows colors chars-per-pixel */
"50 50 213 2 ",
"   c #010101",
".  c #040904",
"X  c #0D0A04",
"o  c #050B0D",
"O  c #060608",
"+  c #110F08",
"@  c #170D00",
"#  c #0B130B",
"$  c #17170B",
"%  c #060D10",
"&  c #090F11",
"*  c #0B181E",
"=  c #08141B",
"-  c #141B13",
";  c #201E0F",
":  c #162312",
">  c #1D2B18",
",  c #1D3416",
"<  c #0F210E",
"1  c #25200A",
"2  c #2D2A14",
"3  c #292512",
"4  c #362D15",
"5  c #223719",
"6  c #3E3418",
"7  c #3A3519",
"8  c #0B1A20",
"9  c #0F232D",
"0  c #10242D",
"q  c #122D36",
"w  c #15323C",
"e  c #243323",
"r  c #313F29",
"t  c #473C1B",
"y  c #28461D",
"u  c #284621",
"i  c #2C5121",
"p  c #335C26",
"a  c #314829",
"s  c #39672D",
"d  c #55461E",
"f  c #48441F",
"g  c #4C4622",
"h  c #4E4923",
"j  c #584E23",
"k  c #555026",
"l  c #695826",
"z  c #725E29",
"x  c #604F24",
"c  c #447737",
"v  c #6A652D",
"b  c #6A662D",
"n  c #78642B",
"m  c #787033",
"M  c #163844",
"N  c #0D3044",
"B  c #1B4454",
"V  c #1E495A",
"C  c #1A404E",
"Z  c #2D535C",
"A  c #1F5166",
"S  c #215266",
"D  c #215669",
"F  c #24596C",
"G  c #255D72",
"H  c #26647C",
"J  c #29657C",
"K  c #29697F",
"L  c #276074",
"P  c #54674E",
"I  c #4A7270",
"U  c #847B37",
"Y  c #8C7333",
"T  c #488737",
"R  c #578E3C",
"E  c #4E993A",
"W  c #549B3B",
"Q  c #63983B",
"!  c #54A33C",
"~  c #5AA43D",
"^  c #57AD3D",
"/  c #59B53F",
"(  c #63A73D",
")  c #599D45",
"_  c #568D44",
"`  c #6C9452",
"'  c #5AA645",
"]  c #5BB542",
"[  c #65A844",
"{  c #67B946",
"}  c #74B848",
"|  c #7DAE50",
" . c #5FD344",
".. c #5EC043",
"X. c #64C344",
"o. c #69C947",
"O. c #64D745",
"+. c #66D946",
"@. c #6ADB46",
"#. c #66D748",
"$. c #68D749",
"%. c #67D848",
"&. c #6ADA49",
"*. c #73DE46",
"=. c #71DE4A",
"-. c #7CDE49",
";. c #79DA58",
":. c #74CC4A",
">. c #6CE146",
",. c #6CE44A",
"<. c #6FE84C",
"1. c #73E247",
"2. c #7CE347",
"3. c #74E349",
"4. c #7BE549",
"5. c #72EA4B",
"6. c #7AEB4B",
"7. c #77E847",
"8. c #7BF14C",
"9. c #7AE754",
"0. c #7CF253",
"q. c #7DFB54",
"w. c #75F653",
"e. c #8F873A",
"r. c #AB8C3C",
"t. c #B3923D",
"y. c #BA9841",
"u. c #A59A44",
"i. c #B5A847",
"p. c #BDB64C",
"a. c #D9AE47",
"s. c #DAAF49",
"d. c #D4AC47",
"f. c #DDB24A",
"g. c #D5B84C",
"h. c #C9A245",
"j. c #E1B64B",
"k. c #E5B94D",
"l. c #EABC4D",
"z. c #83D94A",
"x. c #81CA4A",
"c. c #80E447",
"v. c #83E649",
"b. c #84EA49",
"n. c #8CEA4A",
"m. c #84E849",
"M. c #93ED4B",
"N. c #8AF34C",
"B. c #97F44C",
"V. c #93E35A",
"C. c #8AF958",
"Z. c #A4FF5D",
"A. c #D9CB54",
"S. c #DED459",
"D. c #E5C24F",
"F. c #EDC050",
"G. c #E6CA52",
"H. c #E9CD53",
"J. c #E3C550",
"K. c #FDCC54",
"L. c #F6C952",
"P. c #E9D658",
"I. c #F3DD5A",
"U. c #F1D957",
"Y. c #F5E35D",
"T. c #F8E55E",
"R. c #FBE75C",
"E. c #D3DF79",
"W. c #EEE963",
"Q. c #FDEB62",
"!. c #F8E861",
"~. c #FFF364",
"^. c #FFFB64",
"/. c #FEF568",
"(. c #FFFD6A",
"). c #F7F165",
"_. c #FFFF75",
"`. c #286A81",
"'. c #2C6B86",
"]. c #2E728D",
"[. c #357388",
"{. c #2E7693",
"}. c #337793",
"|. c #318095",
" X c #3587A8",
".X c #3A95BA",
"XX c #3B98BB",
"oX c #3690AC",
"OX c #3C9CC2",
"+X c #3FA4CD",
"@X c #3FAAD4",
"#X c #40A4CD",
"$X c #41ABD5",
"%X c #43AEDA",
"&X c #41A7D3",
"*X c #42B2DC",
"=X c #46B9E4",
"-X c #47BAEA",
";X c #49BDED",
":X c #45B6E3",
">X c #49BFF1",
",X c #4AC2F5",
"<X c #4CC6FA",
"1X c #4DCAFE",
"2X c #4FD3FE",
"3X c #51D6FF",
"4X c #52DCFF",
"5X c #72DEF4",
"6X c #55E3FF",
"7X c #56E9FF",
"8X c #5AF3FF",
"9X c #4EE2FF",
"0X c #DDF081",
/* pixels */
"+.+.+.@.2.;.=.&.+.6.{ 2 5 , , , , : W 0.3.3.$.+.+.%.@.+.@.@.@.2.n.m.*.O.&.&.=.&.&.+.O.O.+.6.3.3.3.3.",
"@.3.+.O.n.@.*.2. .6./ X             T C.3.,.+.*.+.@.@.+.3.3.O.+.@.&.O.@.@.$.3.=.;.&.4.4.O.1.2.3.3.&.",
"@.3.@.+.c.n.M.@.O.>.{   f P.A.P.b   - : : > ] 6.@.1.@.O.O.@.%.&.,.O.1.@.$.@.@.3.4.&.v.4.+.O.@.@.@.O.",
"+.+.+.M.m.n.n.v.@.>./   k ^.T.(.e.  + O     ' 3.3.4.@.@.2.O.@.@.4.@.1.+.@.3.3.3.3.1.&.O.+.4.2.O.O.&.",
"O.@.+.@.M.n.M.m. .1./   f F.G.~.I.P.P.!.h   # : o.6.5.@.M.*.$.O.@.4.1.+.+.@.3.3.3.3.+.@.+.v.4.+.1.+.",
"2.n.O.@.2.n.n.*.+.>...  t h.g.R.!.Q.Q./.v + X   { ;.:.z.m.*.*.O.@.@.,.O.@.@.@.3.3.@.O.1.3.O.O.%.m.*.",
"B.*.O.$.O.@.O.+.@.@.X..     x l.G.Q.Q.!.Y.Q.7   . O O , V.B.3.@.@.$.&.v.&.+.+.&.&.%.%.&.%.%.&.%.*.n.",
"n.O.@.@.+.@.1.@.+.>.X.y :   d l.J.!.!.Q.!.~.l : 2 3   & } :.{ X.&.$.&.M.&.O.@.%.$.$.@.$.@.4.@.$.=.m.",
"O.@.@.@.7.3.1.+.+.@.*.0.[   x L.j.d.P.~.Q.Q.R.Q.Q.T.$         e 9.@.b.n.4.3.>.<.,.&.5.b.7.4.+.%.&.&.",
"$.@.@.+.1.3.1.1.+.@.3.8.~   t r.t.j.H.I.I.I.T.Q.Q.T.k 7 t 7   > :./ o.x.z.:.] { { ] / z.b.2.2.+.=.$.",
"+.@.+.+.1.3.2.@.O.@.@.5.!   .   z l.s.s.f.s.I.~.Q.Q.~././.S.O           .             [ N.b.@.&.&.=.",
"+.@.3.+.@.@.+.@.*.O.@.,./ y 5   z l.f.f.j.f.H.U.I.U.T.!.Q.P.k h h h h g f g h g h ;   ' 6.&.+.+.&.4.",
">.@.1.@.@.O.*.@.@.@.&.4.&.w.E   z l.j.j.s.j.s.s.a.a.Y.Q.!.Q././.(.(.(.(.(.(.(./._.b   ' ,.$.$.@.=.3.",
"3.+.+.+.+.O.@.@.O.@.,.3.@.<.T   l l.a.j.j.j.j.f.D.G.!.Q.Q.Q.!.Y.H.H.H.H.H.G.U.i.e.g   ) ,.=.%.&.3.3.",
"@.+.&.@.m.@.M.2.O.@.*.4.1.5.T   n K.j.s.f.s.s.a.Y.Q.Q.~.Q.Q.~.Y.s.j.l.l.l.k.K.z   O   ) b.M.O.+.@.@.",
"+.*.@.O.m.B.n.*.@.+.&.@.@.>.T   6 z r.j.D.H.H.H.Y.Q.H.P.H.H.H.J.j.y.l z z n n 6   a c x.B.2.1.O.&.&.",
"@.@.@.@.@.M.n.B.@.O.+.@.@.q.E   .   n k.U.~.~.~.Q.Q.f.s.l.l.l.l.L.r.              _ w.v.n.M.m.O.&.@.",
"+.@.+.$.@.n.m.*.O.3.@.@./ s y   t Y t.j.k.H.G.J.G.G.f.d.l j x j l f   5 _ c T T c { #.4.n.2.@.$.@.@.",
"@.1.O.$.@.@.&.+.@.1.+.w.!       z K.j.s.f.s.k.l.k.l.l.f.+             p C.0.5.<.5.,.%.%.@.+.$.@.@.4.",
"1.1.@.@.@.O.@.@.+.@.{ p y   t Y t.j.s.f.f.j.z t d t d t X     ; i.m   i ,.@.*.*.@.&.%.%.$.&.%.@.>.1.",
"1.1.@.1.@.%.3.>.O.0.]       j K.j.s.f.j.k.F.4                 2 (.p.  p C.6.0.6.%.%.@.&.+.3.@.@.3.3.",
"1.3.@.+.&.@.3.1.o.i ,   4 r.t.j.s.k.Y 2 4 t +     . u.i.X     2 ~.i.  < a y e W ,.O.3.3.@.@.O.@.>.4.",
"@.@.+.+.%.3.3.7.{ O     d L.j.k.f.l.x               P.).+     2 (.p.      .   c 0.$.O.3.4.&.%.@.+.>.",
"@.+.@.*.+.@.@.<.X.  3 y.y.l.Y @ I 5XZ   O         . A.Y.+     O 7 3   M =XL   - > ) ,.%.3.&.@.B.@.+.",
"@.@.@.+.>.@.+.@.X.. 4 l.f.k.m   H 9XA   .         . A.I.+             B 6X{.  .   T ,.O.&.$.@.@.@.@.",
"@.1.+.@.+.@.+.>.] .   $ $ @ Z ,XG & %               ; $               o % S ,XF   R <.$.&.@.@.O.@.@.",
"1.>.+.@.+.@.n.@.X.: # < #   A 7X`.  % % % o o o o o o O           . & &   D 7XK   Q 6.c.&.3.1.O.@.4.",
"1.1.2.+.&.O.M.2.m.-.o.3.|   D 4X,X-X-X-X;X>X>X>X>X;X>X%X%         q >X-X-X>X4X`.  ( B.m.O.&.@.@.1.3.",
"1.4.@.+.%.+.*.M.n.*.*.<.'   V ;X-X1X1X2X;X:X=X-X-X:X1X;X0 = * * & B 3X1X1X;X;XG   R V.z.1.+.@.O.1.5.",
"1.@.@.@.+.2.M.n.v.n.*.,.E   .   H 3X,X2XB         . *X3X1X1X,X,X,X,X<X1X6X{.  .   O O | 6.O.@.$.@.3.",
"@.+.+.&.$.@.n.n.n.n.O.<.E   = * ].3X<X2XG * 0 9 9 9 .X$X#X$X<X1X1X1X1X-X%X[.1 2 2 + O ) <.+.@.+.+.O.",
"O.1.3.O.@.@.@.2.*.O.O.<.!   A 4X<X1X1X1X1X1X1X1X1X<X*     * 1X3X1X<X3X X  v (.!.(.v   W >.+.@.O.2.b.",
"@.@.+.+.@.+.+.+.O.*.$.1.!   A 4X<X1X1X1X1X1X1X1X1X>X9 O   = .X#X<X<X3XoX  b (.Y.~.v   ~ 5.3.@.O.2.v.",
"@.O.1.7.+.*.+.@.>.@.O.<.'   A 3X<X1X1X1X1X1X1X1X<X>X*         0 1X<X3X X. b (.).(.b   ( 8.@.@.O.O.O.",
"b.1.b.@.+.@.%.&.4.@.+.,.)   D 4X<X1X1X1X1X>X1X1X<X<X8   g k h P 1X<X3XOXN P i.u.i.g   ~ 8.2.1.$.&.O.",
"1.b.2.@.@.+.&.@.3.@.+.,.E   A 3X<X1X1X1X1X1X1X1X1X>X8 @ W.(.~.0X1X1X<X1X8X|.      .   ! 6.@.+.@.@.1.",
"2.2.2.b.@.+.@.3.3.1.O.6.(   A 2X<X1X1X1X1X1X1X1X1X<X8 . H.!.R.E.<X1X2X@X{.H F q   e s ] >.%.+.+.+.4.",
"b.b.m.1.O.@.@.3.,.@.$.3.{   F 7X1X1X1X1X1X<X1X<X1X<X= @ W.(./.0X1X<X3X X  A 8XK   E C.v.O.%.3.>.+.@.",
"@.1.1.O.O.@.O.+.@.$.$.,.!   q `.XX1X1X1X1X1X1X1X1X>X8 . m U U ` 1X<X2X X  F 6XH   T b.4.O.+.@.3.+.+.",
"O.@.+.2.2.+.3.@.&.&.$.<.E   .   G 3X<X1X1X1X1X1X3X2X8   O     0 1X<X9XoX  A 6XH   T ,. .@.*.O.+.@.@.",
"@.3.O.2.2.O.1.@.O.4.=.3.X.T p   `.3X<X<X1X1X1X1X'.D ].{.}.}.]. X1X$XS J '..X4XH   T N.O.n.*.O.&.>.@.",
"3.>.@.+.O.@.@.O.@.@.9.3.@.C.'   H 4X<X1X1X1X1X1X9   *X6X3X3X4X2X6XXX  B 6X1X4XK   T B.n.n.@.@.+.@.4.",
"1.1.3.&.O.n.n.O.3.6.3.3.^ i e   H 3X<X1X<X<X1X1Xq   %X1X,X,X1X@XB F  XOX1X<X3XK   W N.n.c.M.2.O.*.3.",
">.7.@.+.O.+.@.O.&.*.3.q.)   .   H 6X<X<X1X1X1X3X9   %X2X1X3X4X&X  M 6X1X1X<X4X`.  W Z.n.M.n.O.+.1.5.",
"1.@.@.+.1.@.@.@.@.@./ y >   C +XJ 9 oX2X<X1XG q  XXX<X,XC M w V .X+X<X1X1X<X3XH   > a | N.*.O.+.@.1.",
"@.@.+.@.b.@.+.@.*.,.^       A 8X`.  {.4X1X2Xw   +X4X1X=X%     9 3X1X1X1X1X<X3XH   O   ) <.O.@.$.%.@.",
"+.+.@.1.2.1.@.O.O.,.{   M &X*X1X:X$XG 8 q 9  X@X,X1X1X<X$X#X+X$X<X1X1X1X1X1X1X:X%XB   ' ,.@.$.@.&.+.",
"*.@.@.b.m.2.O.@.$.<.'   B 4X1X<X<X4XF   .   .X4X<X<X<X<X1X2X1X1X<X<X<X<X<X<X<X<X4XF   | 7.@.*.O.@.+.",
"@.+.@.3.*.*.%.*.&.C.}   O * * * * * o       = * * 8 * * * * * * * * * 8 8 * 8 * * o   ' ,.$.3.@.2.O.",
"+.@.@.;.&.%.&.O.%.9.}                                                                 ' ,.O.1.2.>.@."
};
