/* XPM */
static char *wall[] = {
/* columns rows colors chars-per-pixel */
"50 50 27 1 ",
"  c #4A4A4A",
". c #4B4B4B",
"X c #4C4C4C",
"o c #4D4D4D",
"O c #4E4E4E",
"+ c #4F4F4F",
"@ c #505050",
"# c #515151",
"$ c #636363",
"% c #656565",
"& c #666666",
"* c #676767",
"= c #686868",
"- c #696969",
"; c #6A6A6A",
": c #6B6B6B",
"> c #6C6C6C",
", c #6D6D6D",
"< c #707070",
"1 c #717171",
"2 c #727272",
"3 c #747474",
"4 c #757575",
"5 c #767676",
"6 c #787878",
"7 c #797979",
"8 c #7A7A7A",
/* pixels */
"XXXXXXX oXXXXXXXXXX oXXXXXXXXXX oXXXXXXXXXX oXXXXX",
"&&&&&*$+<=&&&&&&&*$+<=&&&&&&&*$+1=&&&&&&&*$+1=&&&&",
"-----;&@4:-------;&@4:-------;&@4:-------;&@4:----",
":::::>=@4,:::::::>=@4,:::::::>=@4,:::::::>=@4,::::",
"4434351+25344434351+25344434351@25344434351@253444",
"+O@++++X+++++O@++++XO++++o@++++XO++++o@++++XO++++o",
"$O1=%&&*&&&*$O1=%&&*&&&*$O1=%&&*&&&*$O1=%&&*&&&*$.",
"%@5>-------;&@5>-------;&@5>-------;&+5>-------;&X",
"*@5,;::::::>*@5,;::::::>*@5,;::::::>*+5,;::::::>=X",
"<@25344434351+25344434351+25344434351+25344433351o",
"+X+++++O@++++X+++++O@++++X+++++O@++++X+++++O@++++X",
"&*&&&*$O<=%&&*&&&*$O<=%&&*&&&*$O<=%&&*&&&*$O<=%&&*",
"-----;&@4:-------;&@4:-------;&@4:-------;&@4:----",
":::::>=@4,;::::::>=@4,;::::::>=@4,;::::::>=@4,;:::",
"3433341+25333433341+25333433341@25333433341+253334",
"+O#@@@+X+@@@+O#@@@+o+@@@+O#@@@+X+@@@+O#@@@+X+@@@+O",
"$O1=%&&*&&&*$O1=%&&*&&&*$O1=%&&*&&&*$O1=%&&*&&&*$.",
"%@5>-------;&@5:-------;&+5:-------;&+5:-------;&X",
"*@5,;::::::>*@5,;::::::>*+5,;::::::>*+5,;::::::>=X",
"1@25444544451+25444544451+25444544451+25444544451o",
"+X+@@@+O#@@@+X+@@@+O#@@@+X+@@@+O#@@@+X+@@@+O#@@@+X",
"&*&&%*$O<=%&&*&&%*$O<=%&&*&&%*$O<=%&&*&&%*$O<=%&&*",
"-----;&@4:-------;&@4:-------;&@4:-------;&@4:----",
":::::>=@4,:::::::>=@4,:::::::>=@4,:::::::>=@4,::::",
"4434351+25344434351+25344434351@25344434351@253444",
"+O@++++X+++++O@++++XO++++o@++++XO++++o@++++XO++++o",
"$O1=%&&*&&&*$O1=%&&*&&&*$O1=%&&*&&&*$O1=%&&*&&&*$.",
"%@5>-------;&@5>-------;&@5>-------;&+5>-------;&X",
"*@5,;::::::>*@5,;::::::>*@5,;::::::>*+5,;::::::>=X",
"<@25344434351+25344434351+25344434351+25344433351o",
"+X+++++O@++++X+++++O@++++X+++++O@++++X+++++O@++++X",
"&*&&&*$O<=%&&*&&&*$O<=%&&*&&&*$O<=%&&*&&&*$O<=%&&*",
"-----;&@4:-------;&@4:-------;&@4:-------;&@4:----",
":::::>=@4,;::::::>=@4,;::::::>=@4,;::::::>=@4,;:::",
"3433341+25333433341+25333433341@25333433341+253334",
"+O#@@@+X+@@@+O#@@@+o+@@@+O#@@@+X+@@@+O#@@@+X+@@@+O",
"$O1=%&&*&&&*$O1=%&&*&&&*$O1=%&&*&&&*$O1=%&&*&&&*$.",
"%@5>-------;&@5:-------;&+5:-------;&+5:-------;&X",
"*@5,;::::::>*@5,;::::::>*+5,;::::::>*+5,;::::::>=X",
"1@25444544451+25444544451+25444544451+25444544451o",
"+X+@@@+O#@@@+X+@@@+O#@@@+X+@@@+O#@@@+X+@@@+O#@@@+X",
"&*&&%*$O<=%&&*&&%*$O<=%&&*&&%*$O<=%&&*&&%*$O<=%&&*",
"-----;&@4:-------;&@4:-------;&@4:-------;&@4:----",
":::::>=@4,:::::::>=@4,:::::::>=@4,:::::::>=@4,::::",
"4434351+25344434351+25344434351@25344434351@253444",
"+O@++++X+++++O@++++XO++++o@++++XO++++o@++++XO++++o",
"$O1=%&&*&&&*$O1=%&&*&&&*$O1=%&&*&&&*$O1=%&&*&&&*$.",
"&@5>-------;&@5>-------;&@5>-------;&+5>-------;&X",
"*@4>-;;;;;;:*+4>;;;;;;;:*+4>;;;;;;;:*+3>;;;;;;;:*X",
"3#58677777683@58677777683@58677777683@58677777683o"
};
